<svg xmlns="http://www.w3.org/2000/svg" style="display: none;">
    <defs>
        <symbol id="icon-utility" viewBox="0 0 400 400">
            <path d="M389.65,145.93c-9.29-36.48-13.64-44.1-22.14-60.65-3.37-6.58-10.73-9.6-18.17-9.6H141.57c-17.44,0-28.5,10.43-42.91,37.64C90,129.6,85,143.54,78.26,156.28c-13.71,11.23-42.26,24.79-58.93,37-7.11,5.21-13.2,14.7-13.2,23.41v44.64c0,3.66,3.42,6.66,7.59,6.66h28.6c.6-20.86,20.1-37.66,44-37.66s43.41,16.8,44,37.66H279.28c.6-20.86,20.1-37.66,44-37.66s43.41,16.8,44,37.66h18.14c4.23,0,7.7-3,7.7-6.76V167.71C393.13,162.27,391.72,154.06,389.65,145.93ZM216,160.09a4.42,4.42,0,0,1-4.67,4.51H104.93c-2.24,0-2.77-2.89-2.1-4.35,3.94-8.53,2.72-13.77,13.42-35.08C127.11,103.53,133.77,96,151.34,96H211.5c2.25,0,4.49,1.44,4.49,3.89Z"/>
            <path d="M86.32,241.33c-17.38,0-31.52,12.42-31.52,27.68s14.14,27.67,31.52,27.67,31.53-12.41,31.53-27.67S103.71,241.33,86.32,241.33ZM102.85,269c0,8-7.41,14.51-16.53,14.51S69.79,277,69.79,269s7.42-14.51,16.53-14.51S102.85,261,102.85,269Z"/>
            <path d="M323.28,241.33c-17.38,0-31.52,12.42-31.52,27.68s14.14,27.67,31.52,27.67,31.53-12.41,31.53-27.67S340.67,241.33,323.28,241.33ZM339.81,269c0,8-7.41,14.51-16.53,14.51S306.76,277,306.76,269s7.41-14.51,16.52-14.51S339.81,261,339.81,269Z"/>
        </symbol>
        <symbol id="icon-pickup" viewBox="0 0 400 400">
            <path d="M6.71,219.89v49.46a7.5,7.5,0,0,0,7.59,7.35h42c.61-24.38,21.26-44,46.57-44s46,19.66,46.57,44h23a7.81,7.81,0,0,0,1.69-.19,8.07,8.07,0,0,0,1.71.19h85.61c.6-24.38,21.25-44,46.57-44s46,19.66,46.57,44H386a7.61,7.61,0,0,0,7.71-7.46V190.88a7.61,7.61,0,0,0-7.71-7.47H180V96.46a7.49,7.49,0,0,0-7.59-7.35H106.79c-17.44,0-29.81,7.14-46.24,36.16-13.9,24.54-23.19,44.61-30,58.67C11,201.6,6.71,207.31,6.71,219.89Zm52.47-41a379.38,379.38,0,0,1,18.95-40.5C90.51,115.17,99,111.5,116.56,111.5h36.55a4.33,4.33,0,0,1,4.49,4.29v62.88c0,2.61-1.68,5-4.68,5H61.28C59,183.65,58.51,180.46,59.18,178.84Z"/>
            <path d="M69.52,277.79c0,17.82,15,32.32,33.36,32.32s33.37-14.5,33.37-32.32-15-32.31-33.37-32.31S69.52,260,69.52,277.79Zm33.36-16.94c9.65,0,17.5,7.6,17.5,16.94s-7.85,16.94-17.5,16.94-17.49-7.6-17.49-16.94S93.24,260.85,102.88,260.85Z"/>
            <path d="M274.66,277.79c0,17.82,15,32.32,33.36,32.32s33.36-14.5,33.36-32.32-15-32.31-33.36-32.31S274.66,260,274.66,277.79ZM308,260.85c9.65,0,17.49,7.6,17.49,16.94s-7.84,16.94-17.49,16.94-17.49-7.6-17.49-16.94S298.38,260.85,308,260.85Z"/>
        </symbol>
        <symbol id="icon-van_l1h1" viewBox="0 0 400 400">
            <path d="M66.39,219.2V248c0,2.35,2.35,4.28,5.23,4.28h28.93c.41-14.22,14.63-25.68,32.06-25.68s31.66,11.46,32.07,25.68h15.83a6.25,6.25,0,0,0,1.16-.11,6.56,6.56,0,0,0,1.18.11h59c.42-14.22,14.64-25.68,32.07-25.68s31.65,11.46,32.07,25.68h21.63c2.91,0,5.3-2,5.3-4.35v-115c0-2.4-2.39-4.35-5.3-4.35H182.85a6.56,6.56,0,0,0-1.18.11,6.25,6.25,0,0,0-1.16-.11H135.3c-12,0-19.37,6.8-29.54,24.21C96.08,169.34,87.5,190,82.83,198.23,69.37,208.53,66.39,211.85,66.39,219.2Zm36.13-23.94c2.71-5.49,7.66-19.09,15.35-34.85,6.89-14.13,12.06-18.79,24.16-18.79h11.21c1.54,0,3.09.93,3.09,2.51v51a3,3,0,0,1-3.22,2.91H104C102.42,198.06,102.05,196.2,102.52,195.26Z"/>
            <path d="M109.64,253c0,10.39,10.31,18.84,23,18.84s23-8.45,23-18.84-10.3-18.84-23-18.84S109.64,242.57,109.64,253Zm23-9.88c6.64,0,12,4.43,12,9.88s-5.41,9.88-12,9.88-12-4.43-12-9.88S126,243.08,132.61,243.08Z"/>
            <path d="M250.9,253c0,10.39,10.3,18.84,23,18.84s23-8.45,23-18.84-10.3-18.84-23-18.84S250.9,242.57,250.9,253Zm23-9.88c6.64,0,12,4.43,12,9.88s-5.4,9.88-12,9.88-12-4.43-12-9.88S267.23,243.08,273.87,243.08Z"/>
        </symbol>
        <symbol id="icon-van_l1h2" viewBox="0 0 400 400">
            <path d="M66.39,219.36v28.75c0,2.35,2.35,4.27,5.23,4.27h28.94c.42-14.17,14.64-25.6,32.08-25.6s31.67,11.43,32.09,25.6h15.83a6.45,6.45,0,0,0,1.17-.11,6.47,6.47,0,0,0,1.18.11h59c.42-14.17,14.65-25.6,32.09-25.6s31.66,11.43,32.08,25.6h21.64c2.92,0,5.31-1.95,5.31-4.34V133.34c0-2.39-2.39-4.34-5.31-4.34H182.91a6.47,6.47,0,0,0-1.18.11,6.45,6.45,0,0,0-1.17-.11H135.34c-12,0-19.39,6.79-29.56,24.14-9.68,16.51-18.27,37.14-22.94,45.31C69.38,208.72,66.39,212,66.39,219.36Zm36.15-23.87c2.71-5.47,7.66-19,15.35-34.74C124.78,146.66,130,142,142.07,142h11.21c1.54,0,3.09.93,3.09,2.5v50.87a3,3,0,0,1-3.22,2.89H104C102.44,198.28,102.07,196.43,102.54,195.49Z"/>
            <path d="M109.66,253c0,10.36,10.31,18.78,23,18.78s23-8.42,23-18.78-10.31-18.79-23-18.79S109.66,242.66,109.66,253Zm23-9.85c6.65,0,12.05,4.42,12.05,9.85s-5.4,9.85-12.05,9.85-12-4.42-12-9.85S126,243.17,132.64,243.17Z"/>
            <path d="M251,253c0,10.36,10.31,18.78,23,18.78s23-8.42,23-18.78-10.31-18.79-23-18.79S251,242.66,251,253Zm23-9.85c6.64,0,12,4.42,12,9.85s-5.41,9.85-12,9.85-12.05-4.42-12.05-9.85S267.32,243.17,274,243.17Z"/>
            <path d="M131,125H328a5,5,0,0,1,5,5v2a0,0,0,0,1,0,0H126a0,0,0,0,1,0,0v-2A5,5,0,0,1,131,125Z"/>
        </symbol>
        <symbol id="icon-van_l2h1" viewBox="0 0 400 400">
            <path d="M153,252m87.68.32c1.41-14.5,15.59-25.94,33-25.94s31.57,11.44,32,25.62h21.58c2.91,0,5.29-1.95,5.29-4.34V132.91c0-2.39-2.38-4.34-5.29-4.34H123.49c-12,0-19.33,6.79-29.47,24.15C84.37,169.23,75.81,189.87,71.15,198c-13.42,10.28-16.4,13.6-16.4,20.92v28.76c0,2.36,2.35,4.28,5.22,4.28H88.82c.41-14.18,14.6-25.62,32-25.62s31.57,11.44,32,25.62h87.89m-96.35-56.85a3,3,0,0,1-3.22,2.91H92c-1.54,0-1.91-1.86-1.44-2.8,2.71-5.49,7.66-19.09,15.35-34.85,6.89-14.13,12.06-18.79,24.16-18.79h11.21c1.54,0,3.09.93,3.09,2.51Z"/>
            <path d="M120.61,234.12c-12.66,0-23,8.45-23,18.84s10.31,18.84,23,18.84,23-8.45,23-18.84S133.28,234.12,120.61,234.12Zm0,28.72c-6.64,0-12-4.43-12-9.88s5.4-9.88,12-9.88,12,4.43,12,9.88S127.25,262.84,120.61,262.84Z"/>
            <path d="M273.87,234.12c-12.67,0-23,8.45-23,18.84s10.3,18.84,23,18.84,23-8.45,23-18.84S286.54,234.12,273.87,234.12Zm0,28.72c-6.64,0-12-4.43-12-9.88s5.4-9.88,12-9.88,12,4.43,12,9.88S280.51,262.84,273.87,262.84Z"/>
            <path d="M153,252m87.68.32c1.41-14.5,15.59-25.94,33-25.94s31.57,11.44,32,25.62h21.58c2.91,0,5.29-1.95,5.29-4.34V132.91c0-2.39-2.38-4.34-5.29-4.34H123.49c-12,0-19.33,6.79-29.47,24.15C84.37,169.23,75.81,189.87,71.15,198c-13.42,10.28-16.4,13.6-16.4,20.92v28.76c0,2.36,2.35,4.28,5.22,4.28H88.82c.41-14.18,14.6-25.62,32-25.62s31.57,11.44,32,25.62h87.89m-96.35-56.85a3,3,0,0,1-3.22,2.91H92c-1.54,0-1.91-1.86-1.44-2.8,2.71-5.49,7.66-19.09,15.35-34.85,6.89-14.13,12.06-18.79,24.16-18.79h11.21c1.54,0,3.09.93,3.09,2.51Z"/>
            <path d="M120.61,234.12c-12.66,0-23,8.45-23,18.84s10.31,18.84,23,18.84,23-8.45,23-18.84S133.28,234.12,120.61,234.12Zm0,28.72c-6.64,0-12-4.43-12-9.88s5.4-9.88,12-9.88,12,4.43,12,9.88S127.25,262.84,120.61,262.84Z"/>
            <path d="M273.87,234.12c-12.67,0-23,8.45-23,18.84s10.3,18.84,23,18.84,23-8.45,23-18.84S286.54,234.12,273.87,234.12Zm0,28.72c-6.64,0-12-4.43-12-9.88s5.4-9.88,12-9.88,12,4.43,12,9.88S280.51,262.84,273.87,262.84Z"/>
        </symbol>
        <symbol id="icon-van_l2h2" viewBox="0 0 400 400">
            <path d="M120.61,234.12c-12.66,0-23,8.45-23,18.84s10.31,18.84,23,18.84,23-8.45,23-18.84S133.28,234.12,120.61,234.12Zm0,28.72c-6.64,0-12-4.43-12-9.88s5.4-9.88,12-9.88,12,4.43,12,9.88S127.25,262.84,120.61,262.84Z"/>
            <path d="M273.87,234.12c-12.67,0-23,8.45-23,18.84s10.3,18.84,23,18.84,23-8.45,23-18.84S286.54,234.12,273.87,234.12Zm0,28.72c-6.64,0-12-4.43-12-9.88s5.4-9.88,12-9.88,12,4.43,12,9.88S280.51,262.84,273.87,262.84Z"/>
            <path d="M333,130a8,8,0,0,0-8-8H122.15a13.14,13.14,0,0,0-13,11.09c-5.12,3.8-9.85,10.15-15.42,19.69C84.08,169.34,75.5,190,70.83,198.23c-13.46,10.3-16.44,13.62-16.44,21V248c0,2.35,2.35,4.28,5.23,4.28H88.55c.41-14.22,14.63-25.68,32.06-25.68s31.66,11.46,32.07,25.68H241.8c.42-14.22,14.64-25.68,32.07-25.68s31.65,11.46,32.07,25.68h21.63c2.91,0,5.3-2,5.3-4.35V137H333ZM144.33,195.15a3,3,0,0,1-3.22,2.91H92c-1.54,0-1.91-1.86-1.44-2.8,2.71-5.49,7.66-19.09,15.35-34.85,6.89-14.13,12.06-18.79,24.16-18.79h11.21c1.54,0,3.09.93,3.09,2.51Z"/>
        </symbol>
        <symbol id="icon-van_l3h2" viewBox="0 0 400 400">
            <path d="M104.15,122H325a8,8,0,0,1,8,8v7a0,0,0,0,1,0,0H91a0,0,0,0,1,0,0v-1.85A13.15,13.15,0,0,1,104.15,122Z"/>
            <path d="M104.61,234.12c-12.66,0-23,8.45-23,18.84s10.31,18.84,23,18.84,23-8.45,23-18.84S117.28,234.12,104.61,234.12Zm0,28.72c-6.64,0-12-4.43-12-9.88s5.4-9.88,12-9.88,12,4.43,12,9.88S111.25,262.84,104.61,262.84Z"/>
            <path d="M273.87,234.12c-12.67,0-23,8.45-23,18.84s10.3,18.84,23,18.84,23-8.45,23-18.84S286.54,234.12,273.87,234.12Zm0,28.72c-6.64,0-12-4.43-12-9.88s5.4-9.88,12-9.88,12,4.43,12,9.88S280.51,262.84,273.87,262.84Z"/>
            <path d="M92,133v.18c-5,3.8-9.73,10.1-15.24,19.51C67.08,169.21,58.5,189.85,53.83,198,40.37,208.31,37.39,211.63,37.39,219v28.77c0,2.35,2.35,4.28,5.23,4.28H71.55c.41-14.19,14.63-25.62,32.06-25.62s31.66,11.43,32.07,25.62h15.83a6.25,6.25,0,0,0,1.16-.11l.33,0V252h88.8c.42-14.19,14.64-25.62,32.07-25.62s31.65,11.43,32.07,25.62h21.63c2.91,0,5.3-1.95,5.3-4.34V137H333V133Zm35.33,62a3,3,0,0,1-3.22,2.89H75c-1.54,0-1.91-1.85-1.44-2.79,2.71-5.48,7.66-19,15.35-34.77,6.89-14.09,12.06-18.74,24.16-18.74h11.21c1.54,0,3.09.93,3.09,2.5Z"/>
        </symbol>
        <symbol id="icon-van_l3h3" viewBox="0 0 400 400">
            <path class="cls-2" d="M104.61,234.12c-12.66,0-23,8.45-23,18.84s10.31,18.84,23,18.84,23-8.45,23-18.84S117.28,234.12,104.61,234.12Zm0,28.72c-6.64,0-12-4.43-12-9.88s5.4-9.88,12-9.88,12,4.43,12,9.88S111.25,262.84,104.61,262.84Z"/>
            <path class="cls-2" d="M273.87,234.12c-12.67,0-23,8.45-23,18.84s10.3,18.84,23,18.84,23-8.45,23-18.84S286.54,234.12,273.87,234.12Zm0,28.72c-6.64,0-12-4.43-12-9.88s5.4-9.88,12-9.88,12,4.43,12,9.88S280.51,262.84,273.87,262.84Z"/>
            <path class="cls-2" d="M325,115H105.15A13.13,13.13,0,0,0,92,128.12v5.06c-5,3.8-9.73,10.1-15.24,19.51C67.08,169.21,58.5,189.85,53.83,198,40.37,208.31,37.39,211.63,37.39,219v28.77c0,2.35,2.35,4.28,5.23,4.28H71.55c.41-14.19,14.63-25.62,32.06-25.62s31.66,11.43,32.07,25.62h15.83a6.25,6.25,0,0,0,1.16-.11l.33,0V252h88.8c.42-14.19,14.64-25.62,32.07-25.62s31.65,11.43,32.07,25.62h21.63c2.91,0,5.3-1.95,5.3-4.34V137H333V123A8,8,0,0,0,325,115ZM127.33,195a3,3,0,0,1-3.22,2.89H75c-1.54,0-1.91-1.85-1.44-2.79,2.71-5.48,7.66-19,15.35-34.77,6.89-14.09,12.06-18.74,24.16-18.74h11.21c1.54,0,3.09.93,3.09,2.5Z"/>
        </symbol>
        <symbol id="icon-lift_truck" viewBox="0 0 400 400">
            <path d="M101.57,203.87C83,221.74,75.34,229.68,75.34,244.6v42.8c0,2.33,2.33,4.24,5.19,4.24h22c.41-12.59,13.06-22.72,28.56-22.72s28.15,10.13,28.56,22.72h21.69c2.85,0,5.19-1.91,5.19-4.24V187.74c0-2.33-2.34-4.24-5.19-4.24H137.68C125.76,183.5,115.88,190.1,101.57,203.87Zm-8.88,31.36c2.69-5.43,8.57-11.46,20.42-22.86,13.76-13.25,17.68-16,29.69-16h25.32c1.53,0,3.07.92,3.07,2.47v36.25A2.92,2.92,0,0,1,168,238H94.12C92.59,238,92.22,236.16,92.69,235.23Z"/>
            <path d="M320.34,292.27c0,9.22,9.18,16.72,20.46,16.72s20.46-7.5,20.46-16.72-9.18-16.72-20.46-16.72S320.34,283.05,320.34,292.27Zm20.46-8.77c5.91,0,10.73,3.94,10.73,8.77S346.71,301,340.8,301s-10.73-3.94-10.73-8.77S334.88,283.5,340.8,283.5Z"/>
            <path d="M110.62,292.27c0,9.22,9.18,16.72,20.46,16.72s20.46-7.5,20.46-16.72-9.17-16.72-20.46-16.72S110.62,283.05,110.62,292.27Zm20.46-8.77c5.92,0,10.73,3.94,10.73,8.77S137,301,131.08,301s-10.73-3.94-10.73-8.77S125.17,283.5,131.08,283.5Z"/>
            <path d="M388.5,254.86H272.77l80.1-12.75a5.87,5.87,0,0,0-1.21-11.66,5.55,5.55,0,0,0-1.09-.45l-74.21-22.19,75.69-16.46a5.86,5.86,0,0,0,4.49-7h0a5.87,5.87,0,0,0-5.8-4.62l-68.61-20.52,70.1-11.16a5.87,5.87,0,0,0-1.85-11.59l-95,15.13a6.47,6.47,0,0,0,.66,12.07l70.75,21.16-71.24,15.48a7.33,7.33,0,0,0-.51,13.36l70.09,21-70.85,11.28a5.87,5.87,0,0,0-4,8.94H203.51c-2.9,0-5.27,1.94-5.27,4.31v28.17c0,2.36,2.37,4.3,5.27,4.3H312.24c.41-12.59,13.06-22.72,28.56-22.72s28.15,10.13,28.56,22.72H388.5c2.9,0,5.27-1.94,5.27-4.3V259.17C393.77,256.8,391.4,254.86,388.5,254.86Z"/>
            <polygon points="375.94 136.09 375.94 134.09 376 134.09 376 111 364.76 111 364.76 124.36 228 124.36 228 112 216.76 112 216.76 135.09 216.76 135.09 216.76 136.09 375.94 136.09"/>
        </symbol>
        <symbol id="icon-box_truck" viewBox="0 0 400 400">
            <path d="M6.13,221.27v56a5.46,5.46,0,0,0,5.32,5.55H23.29c.43-20.43,16.48-36.91,36.17-36.91s35.74,16.48,36.16,36.91h5.81a5.45,5.45,0,0,0,5.32-5.55V146.85a5.44,5.44,0,0,0-5.32-5.54H70.06c-12.23,0-22.36,8.63-37,26.65C14,191.36,6.13,201.75,6.13,221.27ZM23.92,209c2.76-7.11,8.79-15,20.94-29.93C59,161.75,63,158.2,75.3,158.2H87.88A3.14,3.14,0,0,1,91,161.44v47.44c0,2-1.18,3.76-3.28,3.76H25.39C23.82,212.64,23.45,210.24,23.92,209Z"/>
            <path d="M33.55,283.67c0,14.9,11.62,27,25.91,27s25.9-12.11,25.9-27-11.62-27-25.9-27S33.55,268.78,33.55,283.67Zm25.91-14.16C67,269.51,73,275.86,73,283.67S67,297.83,59.46,297.83s-13.58-6.35-13.58-14.16S52,269.51,59.46,269.51Z"/>
            <path d="M124.17,89.68H387.73a5.54,5.54,0,0,1,5.4,5.64v181.9a5.54,5.54,0,0,1-5.4,5.63h-38.5c-.42-20.43-16.48-36.91-36.16-36.91s-35.75,16.48-36.17,36.91H124.17a5.54,5.54,0,0,1-5.4-5.63V95.32A5.54,5.54,0,0,1,124.17,89.68Z"/>
            <path d="M287.16,283.67c0,14.9,11.62,27,25.91,27s25.9-12.11,25.9-27-11.62-27-25.9-27S287.16,268.78,287.16,283.67Zm25.91-14.16c7.48,0,13.58,6.35,13.58,14.16s-6.1,14.16-13.58,14.16-13.59-6.35-13.59-14.16S305.58,269.51,313.07,269.51Z"/>
        </symbol>
        <symbol id="icon-flatbed_truck" viewBox="0 0 400 400">
            <path d="M99.39,119.2h-75c-4.78,0-9.06,3.46-10.62,11.94C9.5,154.56,6.3,192.05,6.3,211.78v64.87c0,3.53,2.41,6.42,5.35,6.42h24c.43-20.05,14.16-36.2,31-36.2s30.56,16.15,31,36.2h1.75c3,0,5.36-2.89,5.36-6.42v-151C104.75,122.09,102.34,119.2,99.39,119.2ZM88.91,197.44c0,2.28-1.18,4.34-3.3,4.34H25.7c-1.59,0-1.59-2.41-1.48-4.19,1.42-24,3.37-42,5-52.45.66-4.41,3.71-6.38,5.83-6.38H85.75c1.58,0,3.16,1.39,3.16,3.75Z"/>
            <path d="M66.66,258C54.7,258,45,269.69,45,284s9.73,26,21.69,26,21.68-11.66,21.68-26S78.62,258,66.66,258ZM77.2,284c0,7-4.73,12.63-10.54,12.63S56.12,291,56.12,284s4.73-12.63,10.54-12.63S77.2,277.06,77.2,284Z"/>
            <path d="M387.85,233.06H122.31c-3,0-5.44,2.93-5.44,6.52v37c0,3.58,2.45,6.52,5.44,6.52H254.83c.42-20.05,14.16-36.2,31-36.2,12.22,0,22.82,8.53,27.86,20.88,5.05-12.35,15.64-20.88,27.87-20.88,16.83,0,30.56,16.15,31,36.2h15.32c3,0,5.45-2.94,5.45-6.52v-37C393.3,236,390.85,233.06,387.85,233.06Z"/>
            <path d="M285.82,258c-12,0-21.69,11.65-21.69,26s9.73,26,21.69,26,21.68-11.66,21.68-26S297.77,258,285.82,258Zm0,38.61c-5.82,0-10.54-5.67-10.54-12.63s4.72-12.63,10.54-12.63,10.53,5.67,10.53,12.63S291.63,296.65,285.82,296.65Z"/>
            <path d="M341.55,258c-12,0-21.69,11.65-21.69,26s9.73,26,21.69,26,21.68-11.66,21.68-26S353.5,258,341.55,258Zm10.54,26c0,7-4.73,12.63-10.54,12.63S331,291,331,284s4.73-12.63,10.54-12.63S352.09,277.06,352.09,284Z"/>
        </symbol>
        <symbol id="icon-refrigerated_truck" viewBox="0 0 400 400">
            <path d="M202.26,190.16c-6.43,0-6.44,10,0,10S208.71,190.16,202.26,190.16Z"/>
            <path d="M6.13,221.27v56a5.46,5.46,0,0,0,5.32,5.55H23.29c.43-20.43,16.48-36.91,36.17-36.91s35.74,16.48,36.16,36.91h5.81a5.45,5.45,0,0,0,5.32-5.55V146.85a5.44,5.44,0,0,0-5.32-5.54H70.06c-12.23,0-22.36,8.63-37,26.65C14,191.36,6.13,201.75,6.13,221.27ZM23.92,209c2.76-7.11,8.79-15,20.94-29.93C59,161.75,63,158.2,75.3,158.2H87.88A3.14,3.14,0,0,1,91,161.44v47.44c0,2-1.18,3.76-3.28,3.76H25.39C23.82,212.64,23.45,210.24,23.92,209Z"/>
            <path d="M33.55,283.67c0,14.9,11.62,27,25.91,27s25.9-12.11,25.9-27-11.62-27-25.9-27S33.55,268.78,33.55,283.67Zm25.91-14.16C67,269.51,73,275.86,73,283.67S67,297.83,59.46,297.83s-13.58-6.35-13.58-14.16S52,269.51,59.46,269.51Z"/>
            <path d="M287.16,283.67c0,14.9,11.62,27,25.91,27s25.9-12.11,25.9-27-11.62-27-25.9-27S287.16,268.78,287.16,283.67Zm25.91-14.16c7.48,0,13.58,6.35,13.58,14.16s-6.1,14.16-13.58,14.16-13.59-6.35-13.59-14.16S305.58,269.51,313.07,269.51Z"/>
            <path d="M6.13,221.27v56a5.46,5.46,0,0,0,5.32,5.55H23.29c.43-20.43,16.48-36.91,36.17-36.91s35.74,16.48,36.16,36.91h5.81a5.45,5.45,0,0,0,5.32-5.55V146.85a5.44,5.44,0,0,0-5.32-5.54H70.06c-12.23,0-22.36,8.63-37,26.65C14,191.36,6.13,201.75,6.13,221.27ZM23.92,209c2.76-7.11,8.79-15,20.94-29.93C59,161.75,63,158.2,75.3,158.2H87.88A3.14,3.14,0,0,1,91,161.44v47.44c0,2-1.18,3.76-3.28,3.76H25.39C23.82,212.64,23.45,210.24,23.92,209Z"/>
            <path d="M33.55,283.67c0,14.9,11.62,27,25.91,27s25.9-12.11,25.9-27-11.62-27-25.9-27S33.55,268.78,33.55,283.67Zm25.91-14.16C67,269.51,73,275.86,73,283.67S67,297.83,59.46,297.83s-13.58-6.35-13.58-14.16S52,269.51,59.46,269.51Z"/>
            <path d="M287.16,283.67c0,14.9,11.62,27,25.91,27s25.9-12.11,25.9-27-11.62-27-25.9-27S287.16,268.78,287.16,283.67Zm25.91-14.16c7.48,0,13.58,6.35,13.58,14.16s-6.1,14.16-13.58,14.16-13.59-6.35-13.59-14.16S305.58,269.51,313.07,269.51Z"/>
            <path d="M66,101h53a0,0,0,0,1,0,0v33a0,0,0,0,1,0,0H57a0,0,0,0,1,0,0V110A9,9,0,0,1,66,101Z"/>
            <path d="M387.73,89.68H124.17a5.54,5.54,0,0,0-5.4,5.64v181.9a5.54,5.54,0,0,0,5.4,5.63H276.9c.42-20.43,16.48-36.91,36.17-36.91s35.74,16.48,36.16,36.91h38.5a5.54,5.54,0,0,0,5.4-5.63V95.32A5.54,5.54,0,0,0,387.73,89.68ZM212.5,254.5H155V143a9,9,0,0,1,9-9h40.44a8,8,0,0,1,8,8Zm124-106H326.43l6.62,7.21a5,5,0,0,1-7.36,6.77L321,157.37V164a5,5,0,0,1-10,0v-8.43L304.54,162a5,5,0,0,1-7.07,0h0a5,5,0,0,1,0-7.07l6.46-6.46H295.5a5,5,0,0,1,0-10h8.15l-5.7-6.21a5,5,0,0,1,.29-7.06h0a5,5,0,0,1,7.07.29l5.69,6.2V123a5,5,0,0,1,10,0v8.43l5.46-5.46a5,5,0,0,1,7.07,0h0a5,5,0,0,1,0,7.07l-5.46,5.46h8.43a5,5,0,0,1,0,10Z"/>
        </symbol>
        <symbol id="icon-tanker" viewBox="0 0 400 400">
            <path d="M6.13,197.5v68c0,3.7,2.34,6.73,5.2,6.73H30.17c.41-17.94,11.81-32.38,25.77-32.38s25.35,14.44,25.76,32.38h14c2.86,0,5.2-3,5.2-6.73V107.19c0-3.71-2.34-6.74-5.2-6.74H68.62c-12,0-21.86,10.48-36.2,32.35C13.81,161.19,6.13,173.81,6.13,197.5Zm17.39-14.88c2.7-8.62,8.59-18.2,20.47-36.32C57.78,125.27,61.7,121,73.74,121h8.75c1.53,0,3.07,1.46,3.07,3.93v57.57c0,2.39-1.15,4.56-3.2,4.56H25C23.42,187,23.05,184.11,23.52,182.62Z"/>
            <path d="M38.41,273.22c0,12.52,7.86,22.7,17.53,22.7s17.52-10.18,17.52-22.7-7.86-22.69-17.52-22.69S38.41,260.71,38.41,273.22Zm17.53-10.09c4.29,0,7.79,4.53,7.79,10.09s-3.5,10.1-7.79,10.1-7.8-4.53-7.8-10.1S51.64,263.13,55.94,263.13Z"/>
            <path d="M118,228.44H379.11c2.9,0,5.28,3.08,5.28,6.84v30.11c0,3.76-2.38,6.83-5.28,6.83H361.46c-.42-17.94-11.81-32.38-25.77-32.38-9.7,0-18.17,7-22.57,17.27-4.39-10.29-12.86-17.27-22.56-17.27-14,0-25.36,14.44-25.77,32.38h-83c-.41-17.94-11.8-32.38-25.76-32.38s-25.35,14.44-25.76,32.38H118c-2.91,0-5.28-3.07-5.28-6.83V235.28C112.68,231.52,115.05,228.44,118,228.44Z"/>
            <path d="M128.14,100.45H375.5c2.9,0,7,2.16,9,4.79,0,0,8.59,10.93,8.59,52.93,0,37-8.69,48.64-8.69,48.64-2,2.71-6,4.92-8.94,4.92H128.14c-2.9,0-6.93-2.21-8.94-4.92,0,0-8.69-11.64-8.69-48.64,0-42,8.59-52.93,8.59-52.93C121.17,102.61,125.24,100.45,128.14,100.45Z"/>
            <path d="M318.17,273.22c0,12.52,7.86,22.7,17.52,22.7s17.53-10.18,17.53-22.7-7.86-22.69-17.53-22.69S318.17,260.71,318.17,273.22Zm9.73,0c0-5.56,3.49-10.09,7.79-10.09s7.8,4.53,7.8,10.09-3.5,10.1-7.8,10.1S327.9,278.79,327.9,273.22Z"/>
            <path d="M273,273.22c0,12.52,7.86,22.7,17.53,22.7s17.52-10.18,17.52-22.7-7.86-22.69-17.52-22.69S273,260.71,273,273.22Zm17.53-10.09c4.29,0,7.79,4.53,7.79,10.09s-3.5,10.1-7.79,10.1-7.8-4.53-7.8-10.1S286.26,263.13,290.56,263.13Z"/>
            <path d="M138.53,273.22c0,12.52,7.87,22.7,17.53,22.7s17.53-10.18,17.53-22.7-7.87-22.69-17.53-22.69S138.53,260.71,138.53,273.22Zm17.53-10.09c4.3,0,7.8,4.53,7.8,10.09s-3.5,10.1-7.8,10.1-7.79-4.53-7.79-10.1S151.76,263.13,156.06,263.13Z"/>
        </symbol>
        <symbol id="icon-dump_truck" viewBox="0 0 400 400">
            <path d="M101.92,166.38H36.18c-4.19,0-7.95,2.86-9.31,9.86-3.76,19.35-6.57,50.32-6.57,66.62v53.59c0,2.92,2.11,5.3,4.69,5.3H46.05c.37-16.56,12.41-29.9,27.17-29.9s26.79,13.34,27.17,29.9h1.53c2.58,0,4.7-2.38,4.7-5.3V171.68C106.62,168.77,104.5,166.38,101.92,166.38ZM92.73,231c0,1.88-1,3.59-2.89,3.59H37.31c-1.39,0-1.39-2-1.3-3.46,1.24-19.81,3-34.67,4.35-43.34.59-3.63,3.26-5.26,5.12-5.26H90a2.89,2.89,0,0,1,2.78,3.09Z"/>
            <path d="M73.22,281.07c-10.49,0-19,9.63-19,21.47S62.73,324,73.22,324s19-9.63,19-21.47S83.7,281.07,73.22,281.07Zm9.24,21.47c0,5.75-4.15,10.43-9.24,10.43S64,308.29,64,302.54s4.14-10.43,9.24-10.43S82.46,296.79,82.46,302.54Z"/>
            <path d="M354.83,260.44H122c-2.62,0-4.77,2.42-4.77,5.39v30.54c0,3,2.15,5.38,4.77,5.38H238.2c.37-16.56,12.41-29.9,27.17-29.9,10.72,0,20,7,24.43,17.24,4.42-10.2,13.71-17.24,24.43-17.24,14.75,0,26.79,13.34,27.16,29.9h13.44c2.62,0,4.77-2.42,4.77-5.38V265.83C359.6,262.86,357.45,260.44,354.83,260.44Z"/>
            <path d="M376.18,208,171.11,132.34l15.26-41.07c1-2.79-.11-5.82-2.55-6.72l-5.55-2-.15-.05-.15-.07-15.73-5.8c-2.44-.9-5.38.62-6.53,3.38l-1.44,3.49c-1.15,2.76-.09,5.75,2.36,6.65l11.59,4.27-15.37,37-5.11,12.29L134.33,176c-1.15,2.76-.08,5.75,2.36,6.66l216.8,79.94c2.45.9,5.38-.62,6.53-3.38l18.52-44.58C379.68,211.85,378.62,208.86,376.18,208ZM176.79,184.44a1.57,1.57,0,0,1-1.91,1l-5.72-2.11a1.42,1.42,0,0,1-.69-1.94l13.33-32.11a1.57,1.57,0,0,1,1.91-1l5.73,2.11a1.44,1.44,0,0,1,.69,2Zm38.57,14.22a1.59,1.59,0,0,1-1.91,1l-5.72-2.11a1.43,1.43,0,0,1-.69-1.95l13.33-32.11a1.58,1.58,0,0,1,1.91-1L228,164.6a1.44,1.44,0,0,1,.69,2Zm38.57,14.22a1.58,1.58,0,0,1-1.91,1l-5.73-2.11a1.44,1.44,0,0,1-.69-1.95l13.34-32.11a1.58,1.58,0,0,1,1.91-1l5.72,2.11a1.43,1.43,0,0,1,.69,2ZM292.5,227.1a1.58,1.58,0,0,1-1.91,1L284.86,226a1.44,1.44,0,0,1-.69-1.95l13.34-32.11a1.58,1.58,0,0,1,1.91-1l5.72,2.12a1.42,1.42,0,0,1,.69,1.94Zm38.57,14.22a1.57,1.57,0,0,1-1.91,1l-5.73-2.11a1.43,1.43,0,0,1-.69-1.94l13.34-32.11a1.57,1.57,0,0,1,1.91-1l5.72,2.11a1.42,1.42,0,0,1,.69,1.94Z"/>
            <path d="M265.37,281.07c-10.49,0-19,9.63-19,21.47s8.53,21.47,19,21.47,19-9.63,19-21.47S275.85,281.07,265.37,281.07Zm0,31.9c-5.1,0-9.25-4.68-9.25-10.43s4.15-10.43,9.25-10.43,9.24,4.68,9.24,10.43S270.46,313,265.37,313Z"/>
            <path d="M314.23,281.07c-10.49,0-19,9.63-19,21.47s8.52,21.47,19,21.47,19-9.63,19-21.47S324.71,281.07,314.23,281.07Zm9.24,21.47c0,5.75-4.15,10.43-9.24,10.43S305,308.29,305,302.54s4.14-10.43,9.24-10.43S323.47,296.79,323.47,302.54Z"/>
        </symbol>
        <symbol id="icon-facebook" viewBox="0 0 50 50">
            <path d="M25,3C12.85,3,3,12.85,3,25c0,11.03,8.125,20.137,18.712,21.728V30.831h-5.443v-5.783h5.443v-3.848 c0-6.371,3.104-9.168,8.399-9.168c2.536,0,3.877,0.188,4.512,0.274v5.048h-3.612c-2.248,0-3.033,2.131-3.033,4.533v3.161h6.588 l-0.894,5.783h-5.694v15.944C38.716,45.318,47,36.137,47,25C47,12.85,37.15,3,25,3z"/>
        </symbol>
        <symbol id="icon-twitter" viewBox="0 0 50 50">
            <path d="M42,12.429c-1.323,0.586-2.746,0.977-4.247,1.162c1.526-0.906,2.7-2.351,3.251-4.058c-1.428,0.837-3.01,1.452-4.693,1.776C34.967,9.884,33.05,9,30.926,9c-4.08,0-7.387,3.278-7.387,7.32c0,0.572,0.067,1.129,0.193,1.67c-6.138-0.308-11.582-3.226-15.224-7.654c-0.64,1.082-1,2.349-1,3.686c0,2.541,1.301,4.778,3.285,6.096c-1.211-0.037-2.351-0.374-3.349-0.914c0,0.022,0,0.055,0,0.086c0,3.551,2.547,6.508,5.923,7.181c-0.617,0.169-1.269,0.263-1.941,0.263c-0.477,0-0.942-0.054-1.392-0.135c0.94,2.902,3.667,5.023,6.898,5.086c-2.528,1.96-5.712,3.134-9.174,3.134c-0.598,0-1.183-0.034-1.761-0.104C9.268,36.786,13.152,38,17.321,38c13.585,0,21.017-11.156,21.017-20.834c0-0.317-0.01-0.633-0.025-0.945C39.763,15.197,41.013,13.905,42,12.429"/>
        </symbol>

    </defs>
</svg>