<svg xmlns="http://www.w3.org/2000/svg" style="display: none;">
    <defs>
        <symbol id="icon-utility" viewBox="0 0 400 400">
            <path d="M389.65,145.93c-9.29-36.48-13.64-44.1-22.14-60.65-3.37-6.58-10.73-9.6-18.17-9.6H141.57c-17.44,0-28.5,10.43-42.91,37.64C90,129.6,85,143.54,78.26,156.28c-13.71,11.23-42.26,24.79-58.93,37-7.11,5.21-13.2,14.7-13.2,23.41v44.64c0,3.66,3.42,6.66,7.59,6.66h28.6c.6-20.86,20.1-37.66,44-37.66s43.41,16.8,44,37.66H279.28c.6-20.86,20.1-37.66,44-37.66s43.41,16.8,44,37.66h18.14c4.23,0,7.7-3,7.7-6.76V167.71C393.13,162.27,391.72,154.06,389.65,145.93ZM216,160.09a4.42,4.42,0,0,1-4.67,4.51H104.93c-2.24,0-2.77-2.89-2.1-4.35,3.94-8.53,2.72-13.77,13.42-35.08C127.11,103.53,133.77,96,151.34,96H211.5c2.25,0,4.49,1.44,4.49,3.89Z"/><path  d="M86.32,241.33c-17.38,0-31.52,12.42-31.52,27.68s14.14,27.67,31.52,27.67,31.53-12.41,31.53-27.67S103.71,241.33,86.32,241.33ZM102.85,269c0,8-7.41,14.51-16.53,14.51S69.79,277,69.79,269s7.42-14.51,16.53-14.51S102.85,261,102.85,269Z"/><path  d="M323.28,241.33c-17.38,0-31.52,12.42-31.52,27.68s14.14,27.67,31.52,27.67,31.53-12.41,31.53-27.67S340.67,241.33,323.28,241.33ZM339.81,269c0,8-7.41,14.51-16.53,14.51S306.76,277,306.76,269s7.41-14.51,16.52-14.51S339.81,261,339.81,269Z"/>/>
        </symbol>

        <symbol id="icon-pickup" viewBox="0 0 400 400">
            <path d="M6.71,219.89v49.46a7.5,7.5,0,0,0,7.59,7.35h42c.61-24.38,21.26-44,46.57-44s46,19.66,46.57,44h23a7.81,7.81,0,0,0,1.69-.19,8.07,8.07,0,0,0,1.71.19h85.61c.6-24.38,21.25-44,46.57-44s46,19.66,46.57,44H386a7.61,7.61,0,0,0,7.71-7.46V190.88a7.61,7.61,0,0,0-7.71-7.47H180V96.46a7.49,7.49,0,0,0-7.59-7.35H106.79c-17.44,0-29.81,7.14-46.24,36.16-13.9,24.54-23.19,44.61-30,58.67C11,201.6,6.71,207.31,6.71,219.89Zm52.47-41a379.38,379.38,0,0,1,18.95-40.5C90.51,115.17,99,111.5,116.56,111.5h36.55a4.33,4.33,0,0,1,4.49,4.29v62.88c0,2.61-1.68,5-4.68,5H61.28C59,183.65,58.51,180.46,59.18,178.84Z"/>
            <path  d="M69.52,277.79c0,17.82,15,32.32,33.36,32.32s33.37-14.5,33.37-32.32-15-32.31-33.37-32.31S69.52,260,69.52,277.79Zm33.36-16.94c9.65,0,17.5,7.6,17.5,16.94s-7.85,16.94-17.5,16.94-17.49-7.6-17.49-16.94S93.24,260.85,102.88,260.85Z"/>
            <path d="M274.66,277.79c0,17.82,15,32.32,33.36,32.32s33.36-14.5,33.36-32.32-15-32.31-33.36-32.31S274.66,260,274.66,277.79ZM308,260.85c9.65,0,17.49,7.6,17.49,16.94s-7.84,16.94-17.49,16.94-17.49-7.6-17.49-16.94S298.38,260.85,308,260.85Z"/>
        </symbol>

        <symbol id="icon-box_truck" viewBox="0 0 400 400">
            <path  d="M6.13,221.27v56a5.46,5.46,0,0,0,5.32,5.55H23.29c.43-20.43,16.48-36.91,36.17-36.91s35.74,16.48,36.16,36.91h5.81a5.45,5.45,0,0,0,5.32-5.55V146.85a5.44,5.44,0,0,0-5.32-5.54H70.06c-12.23,0-22.36,8.63-37,26.65C14,191.36,6.13,201.75,6.13,221.27ZM23.92,209c2.76-7.11,8.79-15,20.94-29.93C59,161.75,63,158.2,75.3,158.2H87.88A3.14,3.14,0,0,1,91,161.44v47.44c0,2-1.18,3.76-3.28,3.76H25.39C23.82,212.64,23.45,210.24,23.92,209Z"/>
            <path  d="M33.55,283.67c0,14.9,11.62,27,25.91,27s25.9-12.11,25.9-27-11.62-27-25.9-27S33.55,268.78,33.55,283.67Zm25.91-14.16C67,269.51,73,275.86,73,283.67S67,297.83,59.46,297.83s-13.58-6.35-13.58-14.16S52,269.51,59.46,269.51Z"/>
            <path  d="M124.17,89.68H387.73a5.54,5.54,0,0,1,5.4,5.64v181.9a5.54,5.54,0,0,1-5.4,5.63h-38.5c-.42-20.43-16.48-36.91-36.16-36.91s-35.75,16.48-36.17,36.91H124.17a5.54,5.54,0,0,1-5.4-5.63V95.32A5.54,5.54,0,0,1,124.17,89.68Z"/>
            <path  d="M287.16,283.67c0,14.9,11.62,27,25.91,27s25.9-12.11,25.9-27-11.62-27-25.9-27S287.16,268.78,287.16,283.67Zm25.91-14.16c7.48,0,13.58,6.35,13.58,14.16s-6.1,14.16-13.58,14.16-13.59-6.35-13.59-14.16S305.58,269.51,313.07,269.51Z"/>
        </symbol>

        <symbol id="icon-flatbed_truck" viewBox="0 0 400 400">
            <path  d="M99.39,119.2h-75c-4.78,0-9.06,3.46-10.62,11.94C9.5,154.56,6.3,192.05,6.3,211.78v64.87c0,3.53,2.41,6.42,5.35,6.42h24c.43-20.05,14.16-36.2,31-36.2s30.56,16.15,31,36.2h1.75c3,0,5.36-2.89,5.36-6.42v-151C104.75,122.09,102.34,119.2,99.39,119.2ZM88.91,197.44c0,2.28-1.18,4.34-3.3,4.34H25.7c-1.59,0-1.59-2.41-1.48-4.19,1.42-24,3.37-42,5-52.45.66-4.41,3.71-6.38,5.83-6.38H85.75c1.58,0,3.16,1.39,3.16,3.75Z"/>
            <path  d="M66.66,258C54.7,258,45,269.69,45,284s9.73,26,21.69,26,21.68-11.66,21.68-26S78.62,258,66.66,258ZM77.2,284c0,7-4.73,12.63-10.54,12.63S56.12,291,56.12,284s4.73-12.63,10.54-12.63S77.2,277.06,77.2,284Z"/>
            <path  d="M387.85,233.06H122.31c-3,0-5.44,2.93-5.44,6.52v37c0,3.58,2.45,6.52,5.44,6.52H254.83c.42-20.05,14.16-36.2,31-36.2,12.22,0,22.82,8.53,27.86,20.88,5.05-12.35,15.64-20.88,27.87-20.88,16.83,0,30.56,16.15,31,36.2h15.32c3,0,5.45-2.94,5.45-6.52v-37C393.3,236,390.85,233.06,387.85,233.06Z"/>
            <path  d="M285.82,258c-12,0-21.69,11.65-21.69,26s9.73,26,21.69,26,21.68-11.66,21.68-26S297.77,258,285.82,258Zm0,38.61c-5.82,0-10.54-5.67-10.54-12.63s4.72-12.63,10.54-12.63,10.53,5.67,10.53,12.63S291.63,296.65,285.82,296.65Z"/>
            <path  d="M341.55,258c-12,0-21.69,11.65-21.69,26s9.73,26,21.69,26,21.68-11.66,21.68-26S353.5,258,341.55,258Zm10.54,26c0,7-4.73,12.63-10.54,12.63S331,291,331,284s4.73-12.63,10.54-12.63S352.09,277.06,352.09,284Z"/>
        </symbol>

        <symbol id="icon-refrigerated_truck" viewBox="0 0 400 400">
            <path  d="M202.26,190.16c-6.43,0-6.44,10,0,10S208.71,190.16,202.26,190.16Z"/>
            <path  d="M6.13,221.27v56a5.46,5.46,0,0,0,5.32,5.55H23.29c.43-20.43,16.48-36.91,36.17-36.91s35.74,16.48,36.16,36.91h5.81a5.45,5.45,0,0,0,5.32-5.55V146.85a5.44,5.44,0,0,0-5.32-5.54H70.06c-12.23,0-22.36,8.63-37,26.65C14,191.36,6.13,201.75,6.13,221.27ZM23.92,209c2.76-7.11,8.79-15,20.94-29.93C59,161.75,63,158.2,75.3,158.2H87.88A3.14,3.14,0,0,1,91,161.44v47.44c0,2-1.18,3.76-3.28,3.76H25.39C23.82,212.64,23.45,210.24,23.92,209Z"/>
            <path  d="M33.55,283.67c0,14.9,11.62,27,25.91,27s25.9-12.11,25.9-27-11.62-27-25.9-27S33.55,268.78,33.55,283.67Zm25.91-14.16C67,269.51,73,275.86,73,283.67S67,297.83,59.46,297.83s-13.58-6.35-13.58-14.16S52,269.51,59.46,269.51Z"/>
            <path  d="M287.16,283.67c0,14.9,11.62,27,25.91,27s25.9-12.11,25.9-27-11.62-27-25.9-27S287.16,268.78,287.16,283.67Zm25.91-14.16c7.48,0,13.58,6.35,13.58,14.16s-6.1,14.16-13.58,14.16-13.59-6.35-13.59-14.16S305.58,269.51,313.07,269.51Z"/>
            <path  d="M6.13,221.27v56a5.46,5.46,0,0,0,5.32,5.55H23.29c.43-20.43,16.48-36.91,36.17-36.91s35.74,16.48,36.16,36.91h5.81a5.45,5.45,0,0,0,5.32-5.55V146.85a5.44,5.44,0,0,0-5.32-5.54H70.06c-12.23,0-22.36,8.63-37,26.65C14,191.36,6.13,201.75,6.13,221.27ZM23.92,209c2.76-7.11,8.79-15,20.94-29.93C59,161.75,63,158.2,75.3,158.2H87.88A3.14,3.14,0,0,1,91,161.44v47.44c0,2-1.18,3.76-3.28,3.76H25.39C23.82,212.64,23.45,210.24,23.92,209Z"/>
            <path  d="M33.55,283.67c0,14.9,11.62,27,25.91,27s25.9-12.11,25.9-27-11.62-27-25.9-27S33.55,268.78,33.55,283.67Zm25.91-14.16C67,269.51,73,275.86,73,283.67S67,297.83,59.46,297.83s-13.58-6.35-13.58-14.16S52,269.51,59.46,269.51Z"/>
            <path  d="M287.16,283.67c0,14.9,11.62,27,25.91,27s25.9-12.11,25.9-27-11.62-27-25.9-27S287.16,268.78,287.16,283.67Zm25.91-14.16c7.48,0,13.58,6.35,13.58,14.16s-6.1,14.16-13.58,14.16-13.59-6.35-13.59-14.16S305.58,269.51,313.07,269.51Z"/>
            <path  d="M66,101h53a0,0,0,0,1,0,0v33a0,0,0,0,1,0,0H57a0,0,0,0,1,0,0V110A9,9,0,0,1,66,101Z"/>    
            <path  d="M387.73,89.68H124.17a5.54,5.54,0,0,0-5.4,5.64v181.9a5.54,5.54,0,0,0,5.4,5.63H276.9c.42-20.43,16.48-36.91,36.17-36.91s35.74,16.48,36.16,36.91h38.5a5.54,5.54,0,0,0,5.4-5.63V95.32A5.54,5.54,0,0,0,387.73,89.68ZM212.5,254.5H155V143a9,9,0,0,1,9-9h40.44a8,8,0,0,1,8,8Zm124-106H326.43l6.62,7.21a5,5,0,0,1-7.36,6.77L321,157.37V164a5,5,0,0,1-10,0v-8.43L304.54,162a5,5,0,0,1-7.07,0h0a5,5,0,0,1,0-7.07l6.46-6.46H295.5a5,5,0,0,1,0-10h8.15l-5.7-6.21a5,5,0,0,1,.29-7.06h0a5,5,0,0,1,7.07.29l5.69,6.2V123a5,5,0,0,1,10,0v8.43l5.46-5.46a5,5,0,0,1,7.07,0h0a5,5,0,0,1,0,7.07l-5.46,5.46h8.43a5,5,0,0,1,0,10Z"/>  
        </symbol>

        <symbol id="icon-dump_truck" viewBox="0 0 400 400">
            <path  d="M101.92,166.38H36.18c-4.19,0-7.95,2.86-9.31,9.86-3.76,19.35-6.57,50.32-6.57,66.62v53.59c0,2.92,2.11,5.3,4.69,5.3H46.05c.37-16.56,12.41-29.9,27.17-29.9s26.79,13.34,27.17,29.9h1.53c2.58,0,4.7-2.38,4.7-5.3V171.68C106.62,168.77,104.5,166.38,101.92,166.38ZM92.73,231c0,1.88-1,3.59-2.89,3.59H37.31c-1.39,0-1.39-2-1.3-3.46,1.24-19.81,3-34.67,4.35-43.34.59-3.63,3.26-5.26,5.12-5.26H90a2.89,2.89,0,0,1,2.78,3.09Z"/>
            <path  d="M73.22,281.07c-10.49,0-19,9.63-19,21.47S62.73,324,73.22,324s19-9.63,19-21.47S83.7,281.07,73.22,281.07Zm9.24,21.47c0,5.75-4.15,10.43-9.24,10.43S64,308.29,64,302.54s4.14-10.43,9.24-10.43S82.46,296.79,82.46,302.54Z"/>
            <path  d="M354.83,260.44H122c-2.62,0-4.77,2.42-4.77,5.39v30.54c0,3,2.15,5.38,4.77,5.38H238.2c.37-16.56,12.41-29.9,27.17-29.9,10.72,0,20,7,24.43,17.24,4.42-10.2,13.71-17.24,24.43-17.24,14.75,0,26.79,13.34,27.16,29.9h13.44c2.62,0,4.77-2.42,4.77-5.38V265.83C359.6,262.86,357.45,260.44,354.83,260.44Z"/>
            <path  d="M376.18,208,171.11,132.34l15.26-41.07c1-2.79-.11-5.82-2.55-6.72l-5.55-2-.15-.05-.15-.07-15.73-5.8c-2.44-.9-5.38.62-6.53,3.38l-1.44,3.49c-1.15,2.76-.09,5.75,2.36,6.65l11.59,4.27-15.37,37-5.11,12.29L134.33,176c-1.15,2.76-.08,5.75,2.36,6.66l216.8,79.94c2.45.9,5.38-.62,6.53-3.38l18.52-44.58C379.68,211.85,378.62,208.86,376.18,208ZM176.79,184.44a1.57,1.57,0,0,1-1.91,1l-5.72-2.11a1.42,1.42,0,0,1-.69-1.94l13.33-32.11a1.57,1.57,0,0,1,1.91-1l5.73,2.11a1.44,1.44,0,0,1,.69,2Zm38.57,14.22a1.59,1.59,0,0,1-1.91,1l-5.72-2.11a1.43,1.43,0,0,1-.69-1.95l13.33-32.11a1.58,1.58,0,0,1,1.91-1L228,164.6a1.44,1.44,0,0,1,.69,2Zm38.57,14.22a1.58,1.58,0,0,1-1.91,1l-5.73-2.11a1.44,1.44,0,0,1-.69-1.95l13.34-32.11a1.58,1.58,0,0,1,1.91-1l5.72,2.11a1.43,1.43,0,0,1,.69,2ZM292.5,227.1a1.58,1.58,0,0,1-1.91,1L284.86,226a1.44,1.44,0,0,1-.69-1.95l13.34-32.11a1.58,1.58,0,0,1,1.91-1l5.72,2.12a1.42,1.42,0,0,1,.69,1.94Zm38.57,14.22a1.57,1.57,0,0,1-1.91,1l-5.73-2.11a1.43,1.43,0,0,1-.69-1.94l13.34-32.11a1.57,1.57,0,0,1,1.91-1l5.72,2.11a1.42,1.42,0,0,1,.69,1.94Z"/>
            <path  d="M265.37,281.07c-10.49,0-19,9.63-19,21.47s8.53,21.47,19,21.47,19-9.63,19-21.47S275.85,281.07,265.37,281.07Zm0,31.9c-5.1,0-9.25-4.68-9.25-10.43s4.15-10.43,9.25-10.43,9.24,4.68,9.24,10.43S270.46,313,265.37,313Z"/>
            <path  d="M314.23,281.07c-10.49,0-19,9.63-19,21.47s8.52,21.47,19,21.47,19-9.63,19-21.47S324.71,281.07,314.23,281.07Zm9.24,21.47c0,5.75-4.15,10.43-9.24,10.43S305,308.29,305,302.54s4.14-10.43,9.24-10.43S323.47,296.79,323.47,302.54Z"/>
        </symbol>

        <symbol id="icon-tanker" viewBox="0 0 400 400">
            <path  d="M6.13,197.5v68c0,3.7,2.34,6.73,5.2,6.73H30.17c.41-17.94,11.81-32.38,25.77-32.38s25.35,14.44,25.76,32.38h14c2.86,0,5.2-3,5.2-6.73V107.19c0-3.71-2.34-6.74-5.2-6.74H68.62c-12,0-21.86,10.48-36.2,32.35C13.81,161.19,6.13,173.81,6.13,197.5Zm17.39-14.88c2.7-8.62,8.59-18.2,20.47-36.32C57.78,125.27,61.7,121,73.74,121h8.75c1.53,0,3.07,1.46,3.07,3.93v57.57c0,2.39-1.15,4.56-3.2,4.56H25C23.42,187,23.05,184.11,23.52,182.62Z"/>
            <path  d="M38.41,273.22c0,12.52,7.86,22.7,17.53,22.7s17.52-10.18,17.52-22.7-7.86-22.69-17.52-22.69S38.41,260.71,38.41,273.22Zm17.53-10.09c4.29,0,7.79,4.53,7.79,10.09s-3.5,10.1-7.79,10.1-7.8-4.53-7.8-10.1S51.64,263.13,55.94,263.13Z"/>
            <path  d="M118,228.44H379.11c2.9,0,5.28,3.08,5.28,6.84v30.11c0,3.76-2.38,6.83-5.28,6.83H361.46c-.42-17.94-11.81-32.38-25.77-32.38-9.7,0-18.17,7-22.57,17.27-4.39-10.29-12.86-17.27-22.56-17.27-14,0-25.36,14.44-25.77,32.38h-83c-.41-17.94-11.8-32.38-25.76-32.38s-25.35,14.44-25.76,32.38H118c-2.91,0-5.28-3.07-5.28-6.83V235.28C112.68,231.52,115.05,228.44,118,228.44Z"/>
            <path  d="M128.14,100.45H375.5c2.9,0,7,2.16,9,4.79,0,0,8.59,10.93,8.59,52.93,0,37-8.69,48.64-8.69,48.64-2,2.71-6,4.92-8.94,4.92H128.14c-2.9,0-6.93-2.21-8.94-4.92,0,0-8.69-11.64-8.69-48.64,0-42,8.59-52.93,8.59-52.93C121.17,102.61,125.24,100.45,128.14,100.45Z"/>
            <path  d="M318.17,273.22c0,12.52,7.86,22.7,17.52,22.7s17.53-10.18,17.53-22.7-7.86-22.69-17.53-22.69S318.17,260.71,318.17,273.22Zm9.73,0c0-5.56,3.49-10.09,7.79-10.09s7.8,4.53,7.8,10.09-3.5,10.1-7.8,10.1S327.9,278.79,327.9,273.22Z"/>
            <path  d="M273,273.22c0,12.52,7.86,22.7,17.53,22.7s17.52-10.18,17.52-22.7-7.86-22.69-17.52-22.69S273,260.71,273,273.22Zm17.53-10.09c4.29,0,7.79,4.53,7.79,10.09s-3.5,10.1-7.79,10.1-7.8-4.53-7.8-10.1S286.26,263.13,290.56,263.13Z"/>
            <path  d="M138.53,273.22c0,12.52,7.87,22.7,17.53,22.7s17.53-10.18,17.53-22.7-7.87-22.69-17.53-22.69S138.53,260.71,138.53,273.22Zm17.53-10.09c4.3,0,7.8,4.53,7.8,10.09s-3.5,10.1-7.8,10.1-7.79-4.53-7.79-10.1S151.76,263.13,156.06,263.13Z"/>
        </symbol>

        <symbol id="icon-van_l1h1" viewBox="0 0 400 400">
            <path  d="M66.39,219.2V248c0,2.35,2.35,4.28,5.23,4.28h28.93c.41-14.22,14.63-25.68,32.06-25.68s31.66,11.46,32.07,25.68h15.83a6.25,6.25,0,0,0,1.16-.11,6.56,6.56,0,0,0,1.18.11h59c.42-14.22,14.64-25.68,32.07-25.68s31.65,11.46,32.07,25.68h21.63c2.91,0,5.3-2,5.3-4.35v-115c0-2.4-2.39-4.35-5.3-4.35H182.85a6.56,6.56,0,0,0-1.18.11,6.25,6.25,0,0,0-1.16-.11H135.3c-12,0-19.37,6.8-29.54,24.21C96.08,169.34,87.5,190,82.83,198.23,69.37,208.53,66.39,211.85,66.39,219.2Zm36.13-23.94c2.71-5.49,7.66-19.09,15.35-34.85,6.89-14.13,12.06-18.79,24.16-18.79h11.21c1.54,0,3.09.93,3.09,2.51v51a3,3,0,0,1-3.22,2.91H104C102.42,198.06,102.05,196.2,102.52,195.26Z"/>
            <path  d="M109.64,253c0,10.39,10.31,18.84,23,18.84s23-8.45,23-18.84-10.3-18.84-23-18.84S109.64,242.57,109.64,253Zm23-9.88c6.64,0,12,4.43,12,9.88s-5.41,9.88-12,9.88-12-4.43-12-9.88S126,243.08,132.61,243.08Z"/>
            <path  d="M250.9,253c0,10.39,10.3,18.84,23,18.84s23-8.45,23-18.84-10.3-18.84-23-18.84S250.9,242.57,250.9,253Zm23-9.88c6.64,0,12,4.43,12,9.88s-5.4,9.88-12,9.88-12-4.43-12-9.88S267.23,243.08,273.87,243.08Z"/>
        </symbol>
        
        <symbol id="icon-van_l2h2" viewBox="0 0 400 400">
            <path  d="M47.42,221.9v32.95c0,2.69,2.68,4.9,6,4.9H86.44c.47-16.25,16.72-29.34,36.63-29.34s36.16,13.09,36.63,29.34h18.08a7.34,7.34,0,0,0,1.34-.13,7.34,7.34,0,0,0,1.34.13h67.35c.47-16.25,16.71-29.34,36.63-29.34s36.16,13.09,36.63,29.34h24.71c3.34,0,6.07-2.24,6.07-5V123.34c0-2.73-2.73-5-6.07-5H180.46a6.55,6.55,0,0,0-1.34.13,6.55,6.55,0,0,0-1.34-.13H126.14c-13.72,0-22.13,7.77-33.75,27.66C81.34,165,71.53,188.58,66.2,198,50.83,209.71,47.42,213.52,47.42,221.9Zm41.27-27.35c3.1-6.27,8.75-21.8,17.53-39.81,7.87-16.13,13.79-21.45,27.61-21.45h12.8c1.76,0,3.53,1.06,3.53,2.86v58.29a3.37,3.37,0,0,1-3.68,3.32H90.34C88.58,197.76,88.16,195.63,88.69,194.55Z"/>
            <path  d="M96.83,260.47c0,11.87,11.77,21.53,26.24,21.53s26.24-9.66,26.24-21.53S137.54,239,123.07,239,96.83,248.6,96.83,260.47Zm26.24-11.28c7.59,0,13.76,5.06,13.76,11.28s-6.17,11.29-13.76,11.29-13.76-5.06-13.76-11.29S115.48,249.19,123.07,249.19Z"/>
            <path  d="M258.2,260.47C258.2,272.34,270,282,284.44,282s26.24-9.66,26.24-21.53S298.91,239,284.44,239,258.2,248.6,258.2,260.47Zm26.24-11.28c7.59,0,13.76,5.06,13.76,11.28s-6.17,11.29-13.76,11.29-13.76-5.06-13.76-11.29S276.85,249.19,284.44,249.19Z"/>
        </symbol>

        <symbol id="icon-van_l3h3" viewBox="0 0 400 400">
            <path  d="M32.42,225.88v39c0,3.19,2.95,5.8,6.56,5.8h36.3C75.8,251.44,93.65,236,115.53,236s39.72,15.49,40.24,34.72h19.86a7.88,7.88,0,0,0,1.47-.15,7.88,7.88,0,0,0,1.47.15h74c.52-19.23,18.37-34.72,40.25-34.72s39.72,15.49,40.24,34.72h27.15c3.66,0,6.66-2.65,6.66-5.89V109.25c0-3.23-3-5.88-6.66-5.88H178.57a7.12,7.12,0,0,0-1.47.15,7.12,7.12,0,0,0-1.47-.15H118.9c-15.07,0-24.32,9.2-37.08,32.73-12.14,22.39-22.91,50.36-28.77,61.44C36.16,211.46,32.42,216,32.42,225.88Zm45.34-32.36c3.41-7.42,9.61-25.79,19.26-47.11,8.64-19.09,15.14-25.39,30.33-25.39h14.06a3.61,3.61,0,0,1,3.87,3.39v69a3.83,3.83,0,0,1-4,3.92H79.57C77.63,197.31,77.18,194.8,77.76,193.52Z"/>
            <path  d="M86.7,271.53c0,14,12.93,25.47,28.83,25.47s28.82-11.43,28.82-25.47-12.93-25.48-28.82-25.48S86.7,257.48,86.7,271.53Zm28.83-13.36c8.33,0,15.11,6,15.11,13.36s-6.78,13.35-15.11,13.35-15.12-6-15.12-13.35S107.19,258.17,115.53,258.17Z"/>
            <path  d="M264,271.53c0,14,12.93,25.47,28.83,25.47s28.83-11.43,28.83-25.47-12.94-25.48-28.83-25.48S264,257.48,264,271.53Zm28.83-13.36c8.33,0,15.11,6,15.11,13.36s-6.78,13.35-15.11,13.35-15.12-6-15.12-13.35S284.46,258.17,292.8,258.17Z"/>
       </symbol>

        <symbol id="icon-van_l4h3" viewBox="0 0 400 400">
            <path  d="M6.13,229.52V274c0,3.64,3.42,6.62,7.59,6.62h42C56.34,258.69,77,241,102.3,241s46,17.69,46.58,39.63h23a8.5,8.5,0,0,0,1.69-.17,8.78,8.78,0,0,0,1.71.17h85.61c.6-21.94,21.26-39.63,46.57-39.63s46,17.69,46.57,39.63h31.41c4.24,0,7.71-3,7.71-6.72V96.4c0-3.69-3.47-6.72-7.71-6.72H175.26a8.78,8.78,0,0,0-1.71.18,8.49,8.49,0,0,0-1.69-.18H106.21c-17.44,0-28.14,10.51-42.91,37.36-14,25.56-26.52,57.48-33.29,70.12C10.47,213.06,6.13,218.19,6.13,229.52ZM58.6,192.58c3.94-8.47,11.12-29.44,22.29-53.77,10-21.79,17.52-29,35.09-29h16.27c2.25,0,4.49,1.44,4.49,3.87v78.72a4.41,4.41,0,0,1-4.67,4.49H60.7C58.46,196.91,57.93,194,58.6,192.58Z"/>
            <path  d="M68.94,281.61c0,16,15,29.07,33.36,29.07s33.37-13,33.37-29.07-15-29.07-33.37-29.07S68.94,265.58,68.94,281.61Zm33.36-15.24c9.65,0,17.5,6.83,17.5,15.24s-7.85,15.24-17.5,15.24S84.81,290,84.81,281.61,92.66,266.37,102.3,266.37Z"/>
            <path  d="M274.08,281.61c0,16,15,29.07,33.36,29.07s33.36-13,33.36-29.07-15-29.07-33.36-29.07S274.08,265.58,274.08,281.61Zm33.36-15.24c9.65,0,17.49,6.83,17.49,15.24s-7.84,15.24-17.49,15.24S290,290,290,281.61,297.8,266.37,307.44,266.37Z"/>
        </symbol>
        <symbol id="icon-facebook" viewBox="0 0 50 50">
            <path d="M25,3C12.85,3,3,12.85,3,25c0,11.03,8.125,20.137,18.712,21.728V30.831h-5.443v-5.783h5.443v-3.848 c0-6.371,3.104-9.168,8.399-9.168c2.536,0,3.877,0.188,4.512,0.274v5.048h-3.612c-2.248,0-3.033,2.131-3.033,4.533v3.161h6.588 l-0.894,5.783h-5.694v15.944C38.716,45.318,47,36.137,47,25C47,12.85,37.15,3,25,3z"/>       
        </symbol>
        <symbol id="icon-twitter" viewBox="0 0 50 50">
            <path d="M42,12.429c-1.323,0.586-2.746,0.977-4.247,1.162c1.526-0.906,2.7-2.351,3.251-4.058c-1.428,0.837-3.01,1.452-4.693,1.776C34.967,9.884,33.05,9,30.926,9c-4.08,0-7.387,3.278-7.387,7.32c0,0.572,0.067,1.129,0.193,1.67c-6.138-0.308-11.582-3.226-15.224-7.654c-0.64,1.082-1,2.349-1,3.686c0,2.541,1.301,4.778,3.285,6.096c-1.211-0.037-2.351-0.374-3.349-0.914c0,0.022,0,0.055,0,0.086c0,3.551,2.547,6.508,5.923,7.181c-0.617,0.169-1.269,0.263-1.941,0.263c-0.477,0-0.942-0.054-1.392-0.135c0.94,2.902,3.667,5.023,6.898,5.086c-2.528,1.96-5.712,3.134-9.174,3.134c-0.598,0-1.183-0.034-1.761-0.104C9.268,36.786,13.152,38,17.321,38c13.585,0,21.017-11.156,21.017-20.834c0-0.317-0.01-0.633-0.025-0.945C39.763,15.197,41.013,13.905,42,12.429"/>      
        </symbol>
       
    </defs>
</svg>